<?xml version="1.0" standalone="no"?><!DOCTYPE svg PUBLIC "-//W3C//DTD SVG 1.1//EN" "http://www.w3.org/Graphics/SVG/1.1/DTD/svg11.dtd"><svg t="1677035409679" class="icon" viewBox="0 0 1024 1024" version="1.1" xmlns="http://www.w3.org/2000/svg" p-id="12503" xmlns:xlink="http://www.w3.org/1999/xlink" width="200" height="200"><path d="M67.7888 962.56a39.3216 39.3216 0 0 0-0.3584 5.4272v2.9184a43.8784 43.8784 0 0 0 2.0992 10.24 38.9632 38.9632 0 0 0 36.7616 25.9584c16.9472 0 40.3456-14.7456 39.7312-33.9456 0-200.8576 161.9456-357.9904 362.8544-357.9904 2.4064 0 2.4064-72.8064 0-72.8064C271.36 542.0032 77.4656 727.04 67.7888 962.56zM746.0352 699.9552c75.52 68.096 127.5904 162.048 127.5904 272.8448-0.6144 19.2 22.784 33.9456 39.7312 33.9456a38.9632 38.9632 0 0 0 36.7616-25.9584 43.8784 43.8784 0 0 0 2.0992-10.24v-2.9184a39.3216 39.3216 0 0 0-0.3584-5.4272 435.8144 435.8144 0 0 0-157.2864-318.2592c-40.1408-29.1328-86.2208 22.016-48.5376 56.0128z" p-id="12504" fill="#000000"></path><path d="M508.9792 17.2544a298.752 298.752 0 1 0 298.752 298.752A298.752 298.752 0 0 0 508.9792 17.2544z m0 522.8544a224.0512 224.0512 0 1 1 224.0512-224.0512 224.0512 224.0512 0 0 1-224.0512 224.0512z" p-id="12505" fill="#000000"></path></svg>